<svg width="302" height="116" viewBox="0 0 302 116" fill="none" xmlns="http://www.w3.org/2000/svg">
<path d="M1 115C12.4729 80.6254 27.7612 49.7742 54.3333 29.0615C66.4824 19.5915 83.9641 10.5408 98.5 8.11282C112.818 5.72126 126.983 1 141.667 1C152.278 1 162.889 1 173.5 1C183.385 1 190.865 5.53934 200.5 7.62564C219.845 11.8144 242.457 18.6826 256.667 35.2974C261.124 40.5088 267.97 45.7842 271.333 51.8615C274.251 57.1335 277.148 63.2338 280.667 68.5231C284.24 73.8942 285.885 84.4053 290.5 88.3026C293.381 90.735 299.717 105.237 301 109.738" stroke="black" stroke-linecap="round" stroke-linejoin="round"/>
</svg>
